<?xml version="1.0" encoding="UTF-8" standalone="no"?>
<svg
   xmlns:dc="http://purl.org/dc/elements/1.1/"
   xmlns:cc="http://creativecommons.org/ns#"
   xmlns:rdf="http://www.w3.org/1999/02/22-rdf-syntax-ns#"
   xmlns:svg="http://www.w3.org/2000/svg"
   xmlns="http://www.w3.org/2000/svg"
   viewBox="0 0 666.66669 666.66669"
   height="666.66669"
   width="666.66669"
   xml:space="preserve"
   id="svg2"
   version="1.1"><metadata
     id="metadata8"><rdf:RDF><cc:Work
         rdf:about=""><dc:format>image/svg+xml</dc:format><dc:type
           rdf:resource="http://purl.org/dc/dcmitype/StillImage" /></cc:Work></rdf:RDF></metadata><defs
     id="defs6" /><g
     transform="matrix(1.3333333,0,0,-1.3333333,0,666.66667)"
     id="g10"><g
       transform="scale(0.1)"
       id="g12"><path
         id="path14"
         style="fill:#ffffff;fill-opacity:1;fill-rule:nonzero;stroke:none"
         d="M 5000,0 H 0 V 5000 H 5000 V 0" /><g
         transform="scale(10)"
         id="g16"><text
           id="text20"
           style="font-variant:normal;font-weight:900;font-size:26.22579956px;font-family:Raleway;-inkscape-font-specification:Raleway-Black;writing-mode:lr-tb;fill:#3c3c3d;fill-opacity:1;fill-rule:nonzero;stroke:none"
           transform="matrix(1,0,0,-1,115.752,453.514)"><tspan
             id="tspan18"
             y="0"
             x="0 17.492609 35.195023 52.66132 71.963509 98.766693">ARROW </tspan></text>
<text
           id="text24"
           style="font-variant:normal;font-weight:300;font-size:26.22579956px;font-family:Raleway;-inkscape-font-specification:Raleway-Light;writing-mode:lr-tb;fill:#3c3c3d;fill-opacity:1;fill-rule:nonzero;stroke:none"
           transform="matrix(1,0,0,-1,220.418,453.514)"><tspan
             id="tspan22"
             y="0"
             x="0 17.9126 37.659698 52.896889 68.134079 83.791275 101.70336 117.59619 123.81171 143.55974">COLLECTION</tspan></text>
</g><path
         id="path26"
         style="fill:#3c3c3d;fill-opacity:1;fill-rule:nonzero;stroke:none"
         d="m 3232.54,3064.51 v -424.7 l 332.24,212.35 z" /><path
         id="path28"
         style="fill:#3c3c3d;fill-opacity:1;fill-rule:nonzero;stroke:none"
         d="m 1817.36,3785.54 -170.29,196.24 c -19.2,22.13 -52.7,24.49 -74.82,5.29 -22.13,-19.2 -24.5,-52.69 -5.3,-74.81 l 140.13,-161.49 -140.01,-161.4 c -19.2,-22.12 -16.83,-55.62 5.3,-74.82 10.04,-8.71 22.42,-12.97 34.73,-12.97 14.85,0 29.6,6.18 40.09,18.28 l 170.17,196.16 c 17.31,19.94 17.3,49.58 0,69.52" /><path
         id="path30"
         style="fill:#3c3c3d;fill-opacity:1;fill-rule:nonzero;stroke:none"
         d="m 1635.74,3785.54 -170.3,196.24 c -19.19,22.13 -52.7,24.49 -74.81,5.29 -22.13,-19.2 -24.5,-52.69 -5.3,-74.81 l 140.13,-161.49 -140.02,-161.4 c -19.19,-22.12 -16.82,-55.62 5.31,-74.82 10.04,-8.71 22.41,-12.97 34.73,-12.97 14.85,0 29.6,6.18 40.09,18.28 l 170.18,196.16 c 17.3,19.94 17.3,49.58 -0.01,69.52" /><path
         id="path32"
         style="fill:#3c3c3d;fill-opacity:1;fill-rule:nonzero;stroke:none"
         d="m 1020.38,3797 -155.13,178.76 c -25.531,29.42 -70.074,32.55 -99.48,7.03 -29.415,-25.52 -32.567,-70.05 -7.04,-99.47 l 53.844,-62.05 H 438.246 c -38.937,0 -70.512,-31.57 -70.512,-70.51 0,-38.94 31.575,-70.52 70.512,-70.52 h 374.328 l -53.742,-61.94 c -25.516,-29.42 -22.363,-73.95 7.051,-99.47 13.351,-11.58 29.805,-17.25 46.187,-17.25 19.723,0 39.352,8.22 53.297,24.3 l 155.023,178.7 c 23,26.51 23,65.91 -0.01,92.42" /><path
         id="path34"
         style="fill:#3c3c3d;fill-opacity:1;fill-rule:nonzero;stroke:none"
         d="m 2790.15,2867.15 -197.85,177.63 c -11.58,10.39 -30,2.17 -30,-13.39 v -114.18 h -341.14 c -9.93,0 -17.99,-8.05 -17.99,-17.99 v -94.13 c 0,-9.93 8.06,-17.99 17.99,-17.99 h 341.14 v -114.18 c 0,-15.56 18.42,-23.78 30,-13.38 l 197.85,177.63 c 8.91,8 8.91,21.97 0,29.98" /><path
         id="path36"
         style="fill:#3c3c3d;fill-opacity:1;fill-rule:nonzero;stroke:none"
         d="m 1720.17,3025.48 h -101.42 l 150.4,-173.36 -150.4,-173.29 h 101.52 l 150.34,173.29 -150.44,173.36" /><path
         id="path38"
         style="fill:#3c3c3d;fill-opacity:1;fill-rule:nonzero;stroke:none"
         d="m 1576.83,3025.48 h -101.41 l 150.39,-173.36 -150.39,-173.29 h 101.51 l 150.34,173.29 -150.44,173.36" /><path
         id="path40"
         style="fill:#3c3c3d;fill-opacity:1;fill-rule:nonzero;stroke:none"
         d="m 1433.54,3025.48 h -101.46 l 150.39,-173.36 -150.39,-173.29 h 101.51 l 150.39,173.29 -150.44,173.36" /><path
         id="path42"
         style="fill:#3c3c3d;fill-opacity:1;fill-rule:nonzero;stroke:none"
         d="m 4238.64,2756.15 v 192.01 l 150.22,-96 z m 58.67,324.76 c -126.33,0 -228.75,-102.42 -228.75,-228.75 0,-126.34 102.42,-228.75 228.75,-228.75 126.34,0 228.75,102.41 228.75,228.75 0,126.33 -102.41,228.75 -228.75,228.75" /><path
         id="path44"
         style="fill:#3c3c3d;fill-opacity:1;fill-rule:nonzero;stroke:none"
         d="m 2256.42,4000.05 147.42,-249.24 -147.42,-249.23 487.16,249.24 -487.16,249.23" /><path
         id="path46"
         style="fill:#3c3c3d;fill-opacity:1;fill-rule:nonzero;stroke:none"
         d="m 1007,1054.84 -94.699,51.3 v -30.77 H 398.367 v -41.05 h 513.934 v -30.77 l 94.699,51.29" /><path
         id="path48"
         style="fill:#3c3c3d;fill-opacity:1;fill-rule:nonzero;stroke:none"
         d="m 2252.62,1891.83 h 235.74 c 6.82,0 12.34,-5.52 12.34,-12.34 v -88.38 l 254.09,162.4 -254.09,162.38 v -88.37 c 0,-6.82 -5.52,-12.33 -12.34,-12.33 h -235.74 l 54.18,-52.86 c 2.38,-2.32 3.72,-5.5 3.72,-8.82 0,-3.33 -1.34,-6.51 -3.72,-8.84 z m 235.74,-135.58 c -2.03,0 -4.07,0.51 -5.92,1.51 -3.95,2.18 -6.41,6.32 -6.41,10.82 v 98.57 h -253.72 c -5.01,0 -9.53,3.04 -11.42,7.68 -1.89,4.66 -0.78,9.98 2.81,13.49 l 66.82,65.19 -66.82,65.18 c -3.59,3.51 -4.7,8.83 -2.81,13.48 1.89,4.65 6.41,7.68 11.42,7.68 h 253.72 v 98.57 c 0,4.51 2.46,8.65 6.41,10.82 3.95,2.16 8.78,2 12.57,-0.42 l 289.32,-184.92 c 3.55,-2.27 5.69,-6.19 5.69,-10.39 0,-4.21 -2.14,-8.14 -5.69,-10.4 l -289.32,-184.92 c -2.02,-1.29 -4.33,-1.94 -6.65,-1.94" /><path
         id="path50"
         style="fill:#3c3c3d;fill-opacity:1;fill-rule:nonzero;stroke:none"
         d="m 420.602,2022.69 h 347.929 v 81.57 L 965.723,1978.22 768.531,1852.19 v 59.33 22.24 H 746.293 420.602 Z m 325.691,122.16 v -99.93 H 398.367 v -182.84 h 347.926 v -50.49 -49.44 L 1007,1928.78 v 49.44 l -260.707,166.63" /><path
         id="path52"
         style="fill:#3c3c3d;fill-opacity:1;fill-rule:nonzero;stroke:none"
         d="M 1368.72,2026.88 H 1534 v 74.86 L 1765.79,1973.36 1534,1844.98 v 48.11 26.75 h -26.75 -138.53 z m 452.29,-53.52 -313.76,173.79 v -93.53 h -165.29 v -160.53 l 39.71,-39.71 h 125.58 v -53.81 l 39.72,-39.72 313.76,173.79 -39.72,39.72" /><path
         id="path54"
         style="fill:#3c3c3d;fill-opacity:1;fill-rule:nonzero;stroke:none"
         d="m 3478.88,1910.75 h -313.13 v 85.5 h 334.5 v 21.38 57.05 l 189.58,-121.18 -189.58,-121.18 v 57.06 21.37 z m 0,202.95 h -76.59 v -96.07 h -334.51 v -128.25 h 76.6 257.91 v -96.08 h 76.59 l 250.64,160.2 -250.64,160.2" /><path
         id="path56"
         style="fill:#3c3c3d;fill-opacity:1;fill-rule:nonzero;stroke:none"
         d="m 2832.23,1054.84 -120.63,58.48 v -47.74 h -368.74 l -39.6,33.35 h -135.49 l 39.6,-33.35 v -21.47 l -39.6,-33.35 h 135.49 l 39.6,33.35 h 368.74 v -47.739 l 120.63,58.469" /><path
         id="path58"
         style="fill:#3c3c3d;fill-opacity:1;fill-rule:nonzero;stroke:none"
         d="m 587.133,3104.39 c -11.668,0 -21.133,-9.46 -21.133,-21.13 0,-11.67 9.465,-21.13 21.133,-21.13 11.672,0 21.133,9.46 21.133,21.13 0,11.67 -9.461,21.13 -21.133,21.13" /><path
         id="path60"
         style="fill:#3c3c3d;fill-opacity:1;fill-rule:nonzero;stroke:none"
         d="m 587.133,3046.62 c -11.668,0 -21.133,-9.46 -21.133,-21.14 0,-11.67 9.465,-21.13 21.133,-21.13 11.672,0 21.133,9.46 21.133,21.13 0,11.68 -9.461,21.14 -21.133,21.14" /><path
         id="path62"
         style="fill:#3c3c3d;fill-opacity:1;fill-rule:nonzero;stroke:none"
         d="m 644.91,3046.62 c -11.672,0 -21.137,-9.46 -21.137,-21.14 0,-11.67 9.465,-21.13 21.137,-21.13 11.672,0 21.137,9.46 21.137,21.13 0,11.68 -9.465,21.14 -21.137,21.14" /><path
         id="path64"
         style="fill:#3c3c3d;fill-opacity:1;fill-rule:nonzero;stroke:none"
         d="m 587.133,2988.84 c -11.668,0 -21.133,-9.46 -21.133,-21.13 0,-11.67 9.465,-21.13 21.133,-21.13 11.672,0 21.133,9.46 21.133,21.13 0,11.67 -9.461,21.13 -21.133,21.13" /><path
         id="path66"
         style="fill:#3c3c3d;fill-opacity:1;fill-rule:nonzero;stroke:none"
         d="m 644.91,2988.84 c -11.672,0 -21.137,-9.46 -21.137,-21.13 0,-11.67 9.465,-21.13 21.137,-21.13 11.672,0 21.137,9.46 21.137,21.13 0,11.67 -9.465,21.13 -21.137,21.13" /><path
         id="path68"
         style="fill:#3c3c3d;fill-opacity:1;fill-rule:nonzero;stroke:none"
         d="m 587.133,2931.07 c -11.668,0 -21.133,-9.46 -21.133,-21.14 0,-11.67 9.465,-21.13 21.133,-21.13 11.672,0 21.133,9.46 21.133,21.13 0,11.68 -9.461,21.14 -21.133,21.14" /><path
         id="path70"
         style="fill:#3c3c3d;fill-opacity:1;fill-rule:nonzero;stroke:none"
         d="m 644.91,2931.07 c -11.672,0 -21.137,-9.46 -21.137,-21.14 0,-11.67 9.465,-21.13 21.137,-21.13 11.672,0 21.137,9.46 21.137,21.13 0,11.68 -9.465,21.14 -21.137,21.14" /><path
         id="path72"
         style="fill:#3c3c3d;fill-opacity:1;fill-rule:nonzero;stroke:none"
         d="m 587.133,2873.29 c -11.668,0 -21.133,-9.46 -21.133,-21.13 0,-11.68 9.465,-21.13 21.133,-21.13 11.672,0 21.133,9.45 21.133,21.13 0,11.67 -9.461,21.13 -21.133,21.13" /><path
         id="path74"
         style="fill:#3c3c3d;fill-opacity:1;fill-rule:nonzero;stroke:none"
         d="m 644.91,2873.29 c -11.672,0 -21.137,-9.46 -21.137,-21.13 0,-11.68 9.465,-21.13 21.137,-21.13 11.672,0 21.137,9.45 21.137,21.13 0,11.67 -9.465,21.13 -21.137,21.13" /><path
         id="path76"
         style="fill:#3c3c3d;fill-opacity:1;fill-rule:nonzero;stroke:none"
         d="m 587.133,2815.52 c -11.668,0 -21.133,-9.47 -21.133,-21.14 0,-11.67 9.465,-21.13 21.133,-21.13 11.672,0 21.133,9.46 21.133,21.13 0,11.67 -9.461,21.14 -21.133,21.14" /><path
         id="path78"
         style="fill:#3c3c3d;fill-opacity:1;fill-rule:nonzero;stroke:none"
         d="m 644.91,2815.52 c -11.672,0 -21.137,-9.47 -21.137,-21.14 0,-11.67 9.465,-21.13 21.137,-21.13 11.672,0 21.137,9.46 21.137,21.13 0,11.67 -9.465,21.14 -21.137,21.14" /><path
         id="path80"
         style="fill:#3c3c3d;fill-opacity:1;fill-rule:nonzero;stroke:none"
         d="m 587.133,2757.74 c -11.668,0 -21.133,-9.46 -21.133,-21.13 0,-11.68 9.465,-21.14 21.133,-21.14 11.672,0 21.133,9.46 21.133,21.14 0,11.67 -9.461,21.13 -21.133,21.13" /><path
         id="path82"
         style="fill:#3c3c3d;fill-opacity:1;fill-rule:nonzero;stroke:none"
         d="m 644.91,2757.74 c -11.672,0 -21.137,-9.46 -21.137,-21.13 0,-11.68 9.465,-21.14 21.137,-21.14 11.672,0 21.137,9.46 21.137,21.14 0,11.67 -9.465,21.13 -21.137,21.13" /><path
         id="path84"
         style="fill:#3c3c3d;fill-opacity:1;fill-rule:nonzero;stroke:none"
         d="m 587.133,2699.96 c -11.668,0 -21.133,-9.46 -21.133,-21.13 0,-11.67 9.465,-21.13 21.133,-21.13 11.672,0 21.133,9.46 21.133,21.13 0,11.67 -9.461,21.13 -21.133,21.13" /><path
         id="path86"
         style="fill:#3c3c3d;fill-opacity:1;fill-rule:nonzero;stroke:none"
         d="m 644.91,2699.96 c -11.672,0 -21.137,-9.46 -21.137,-21.13 0,-11.67 9.465,-21.13 21.137,-21.13 11.672,0 21.137,9.46 21.137,21.13 0,11.67 -9.465,21.13 -21.137,21.13" /><path
         id="path88"
         style="fill:#3c3c3d;fill-opacity:1;fill-rule:nonzero;stroke:none"
         d="m 587.133,2642.19 c -11.668,0 -21.133,-9.47 -21.133,-21.14 0,-11.67 9.465,-21.13 21.133,-21.13 11.672,0 21.133,9.46 21.133,21.13 0,11.67 -9.461,21.14 -21.133,21.14" /><path
         id="path90"
         style="fill:#3c3c3d;fill-opacity:1;fill-rule:nonzero;stroke:none"
         d="m 702.688,2988.84 c -11.672,0 -21.133,-9.46 -21.133,-21.13 0,-11.67 9.461,-21.13 21.133,-21.13 11.667,0 21.128,9.46 21.128,21.13 0,11.67 -9.461,21.13 -21.128,21.13" /><path
         id="path92"
         style="fill:#3c3c3d;fill-opacity:1;fill-rule:nonzero;stroke:none"
         d="m 702.688,2931.07 c -11.672,0 -21.133,-9.46 -21.133,-21.14 0,-11.67 9.461,-21.13 21.133,-21.13 11.667,0 21.128,9.46 21.128,21.13 0,11.68 -9.461,21.14 -21.128,21.14" /><path
         id="path94"
         style="fill:#3c3c3d;fill-opacity:1;fill-rule:nonzero;stroke:none"
         d="m 702.688,2873.29 c -11.672,0 -21.133,-9.46 -21.133,-21.13 0,-11.68 9.461,-21.13 21.133,-21.13 11.667,0 21.128,9.45 21.128,21.13 0,11.67 -9.461,21.13 -21.128,21.13" /><path
         id="path96"
         style="fill:#3c3c3d;fill-opacity:1;fill-rule:nonzero;stroke:none"
         d="m 702.688,2815.52 c -11.672,0 -21.133,-9.47 -21.133,-21.14 0,-11.67 9.461,-21.13 21.133,-21.13 11.667,0 21.128,9.46 21.128,21.13 0,11.67 -9.461,21.14 -21.128,21.14" /><path
         id="path98"
         style="fill:#3c3c3d;fill-opacity:1;fill-rule:nonzero;stroke:none"
         d="m 702.688,2757.74 c -11.672,0 -21.133,-9.46 -21.133,-21.13 0,-11.68 9.461,-21.14 21.133,-21.14 11.667,0 21.128,9.46 21.128,21.14 0,11.67 -9.461,21.13 -21.128,21.13" /><path
         id="path100"
         style="fill:#3c3c3d;fill-opacity:1;fill-rule:nonzero;stroke:none"
         d="m 760.465,2931.07 c -11.676,0 -21.141,-9.46 -21.141,-21.14 0,-11.67 9.465,-21.13 21.141,-21.13 11.668,0 21.133,9.46 21.133,21.13 0,11.68 -9.465,21.14 -21.133,21.14" /><path
         id="path102"
         style="fill:#3c3c3d;fill-opacity:1;fill-rule:nonzero;stroke:none"
         d="m 760.465,2873.29 c -11.676,0 -21.141,-9.46 -21.141,-21.13 0,-11.68 9.465,-21.13 21.141,-21.13 11.668,0 21.133,9.45 21.133,21.13 0,11.67 -9.465,21.13 -21.133,21.13" /><path
         id="path104"
         style="fill:#3c3c3d;fill-opacity:1;fill-rule:nonzero;stroke:none"
         d="m 760.465,2815.52 c -11.676,0 -21.141,-9.47 -21.141,-21.14 0,-11.67 9.465,-21.13 21.141,-21.13 11.668,0 21.133,9.46 21.133,21.13 0,11.67 -9.465,21.14 -21.133,21.14" /><path
         id="path106"
         style="fill:#3c3c3d;fill-opacity:1;fill-rule:nonzero;stroke:none"
         d="m 818.238,2873.29 c -11.672,0 -21.133,-9.46 -21.133,-21.13 0,-11.68 9.461,-21.13 21.133,-21.13 11.672,0 21.133,9.45 21.133,21.13 0,11.67 -9.461,21.13 -21.133,21.13" /><path
         id="path108"
         style="fill:#3c3c3d;fill-opacity:1;fill-rule:nonzero;stroke:none"
         d="m 1695.52,1260.43 c -9.51,0 -17.22,-7.71 -17.22,-17.23 0,-9.51 7.71,-17.22 17.22,-17.22 9.51,0 17.23,7.71 17.23,17.22 0,9.52 -7.72,17.23 -17.23,17.23" /><path
         id="path110"
         style="fill:#3c3c3d;fill-opacity:1;fill-rule:nonzero;stroke:none"
         d="m 1695.52,1213.34 c -9.51,0 -17.22,-7.71 -17.22,-17.23 0,-9.51 7.71,-17.22 17.22,-17.22 9.51,0 17.23,7.71 17.23,17.22 0,9.52 -7.72,17.23 -17.23,17.23" /><path
         id="path112"
         style="fill:#3c3c3d;fill-opacity:1;fill-rule:nonzero;stroke:none"
         d="m 1742.61,1213.34 c -9.51,0 -17.22,-7.71 -17.22,-17.23 0,-9.51 7.71,-17.22 17.22,-17.22 9.51,0 17.23,7.71 17.23,17.22 0,9.52 -7.72,17.23 -17.23,17.23" /><path
         id="path114"
         style="fill:#3c3c3d;fill-opacity:1;fill-rule:nonzero;stroke:none"
         d="m 1695.52,1166.25 c -9.51,0 -17.22,-7.71 -17.22,-17.23 0,-9.51 7.71,-17.22 17.22,-17.22 9.51,0 17.23,7.71 17.23,17.22 0,9.52 -7.72,17.23 -17.23,17.23" /><path
         id="path116"
         style="fill:#3c3c3d;fill-opacity:1;fill-rule:nonzero;stroke:none"
         d="m 1742.61,1166.25 c -9.51,0 -17.22,-7.71 -17.22,-17.23 0,-9.51 7.71,-17.22 17.22,-17.22 9.51,0 17.23,7.71 17.23,17.22 0,9.52 -7.72,17.23 -17.23,17.23" /><path
         id="path118"
         style="fill:#3c3c3d;fill-opacity:1;fill-rule:nonzero;stroke:none"
         d="m 1695.52,1119.16 c -9.51,0 -17.22,-7.71 -17.22,-17.23 0,-9.51 7.71,-17.22 17.22,-17.22 9.51,0 17.23,7.71 17.23,17.22 0,9.52 -7.72,17.23 -17.23,17.23" /><path
         id="path120"
         style="fill:#3c3c3d;fill-opacity:1;fill-rule:nonzero;stroke:none"
         d="m 1742.61,1119.16 c -9.51,0 -17.22,-7.71 -17.22,-17.23 0,-9.51 7.71,-17.22 17.22,-17.22 9.51,0 17.23,7.71 17.23,17.22 0,9.52 -7.72,17.23 -17.23,17.23" /><path
         id="path122"
         style="fill:#3c3c3d;fill-opacity:1;fill-rule:nonzero;stroke:none"
         d="m 1695.52,1072.07 c -9.51,0 -17.22,-7.71 -17.22,-17.23 0,-9.51 7.71,-17.22 17.22,-17.22 9.51,0 17.23,7.71 17.23,17.22 0,9.52 -7.72,17.23 -17.23,17.23" /><path
         id="path124"
         style="fill:#3c3c3d;fill-opacity:1;fill-rule:nonzero;stroke:none"
         d="m 1742.61,1072.07 c -9.51,0 -17.22,-7.71 -17.22,-17.23 0,-9.51 7.71,-17.22 17.22,-17.22 9.51,0 17.23,7.71 17.23,17.22 0,9.52 -7.72,17.23 -17.23,17.23" /><path
         id="path126"
         style="fill:#3c3c3d;fill-opacity:1;fill-rule:nonzero;stroke:none"
         d="m 1695.52,1024.98 c -9.51,0 -17.22,-7.71 -17.22,-17.23 0,-9.512 7.71,-17.219 17.22,-17.219 9.51,0 17.23,7.707 17.23,17.219 0,9.52 -7.72,17.23 -17.23,17.23" /><path
         id="path128"
         style="fill:#3c3c3d;fill-opacity:1;fill-rule:nonzero;stroke:none"
         d="m 1648.43,1119.16 c -9.51,0 -17.22,-7.71 -17.22,-17.23 0,-9.51 7.71,-17.22 17.22,-17.22 9.51,0 17.23,7.71 17.23,17.22 0,9.52 -7.72,17.23 -17.23,17.23" /><path
         id="path130"
         style="fill:#3c3c3d;fill-opacity:1;fill-rule:nonzero;stroke:none"
         d="m 1648.43,1072.07 c -9.51,0 -17.22,-7.71 -17.22,-17.23 0,-9.51 7.71,-17.22 17.22,-17.22 9.51,0 17.23,7.71 17.23,17.22 0,9.52 -7.72,17.23 -17.23,17.23" /><path
         id="path132"
         style="fill:#3c3c3d;fill-opacity:1;fill-rule:nonzero;stroke:none"
         d="m 1648.43,1024.98 c -9.51,0 -17.22,-7.71 -17.22,-17.23 0,-9.512 7.71,-17.219 17.22,-17.219 9.51,0 17.23,7.707 17.23,17.219 0,9.52 -7.72,17.23 -17.23,17.23" /><path
         id="path134"
         style="fill:#3c3c3d;fill-opacity:1;fill-rule:nonzero;stroke:none"
         d="m 1601.34,1119.16 c -9.51,0 -17.22,-7.71 -17.22,-17.23 0,-9.51 7.71,-17.22 17.22,-17.22 9.51,0 17.23,7.71 17.23,17.22 0,9.52 -7.72,17.23 -17.23,17.23" /><path
         id="path136"
         style="fill:#3c3c3d;fill-opacity:1;fill-rule:nonzero;stroke:none"
         d="m 1601.34,1072.07 c -9.51,0 -17.22,-7.71 -17.22,-17.23 0,-9.51 7.71,-17.22 17.22,-17.22 9.51,0 17.23,7.71 17.23,17.22 0,9.52 -7.72,17.23 -17.23,17.23" /><path
         id="path138"
         style="fill:#3c3c3d;fill-opacity:1;fill-rule:nonzero;stroke:none"
         d="m 1601.34,1024.98 c -9.51,0 -17.22,-7.71 -17.22,-17.23 0,-9.512 7.71,-17.219 17.22,-17.219 9.51,0 17.23,7.707 17.23,17.219 0,9.52 -7.72,17.23 -17.23,17.23" /><path
         id="path140"
         style="fill:#3c3c3d;fill-opacity:1;fill-rule:nonzero;stroke:none"
         d="m 1554.25,1119.16 c -9.51,0 -17.22,-7.71 -17.22,-17.23 0,-9.51 7.71,-17.22 17.22,-17.22 9.51,0 17.23,7.71 17.23,17.22 0,9.52 -7.72,17.23 -17.23,17.23" /><path
         id="path142"
         style="fill:#3c3c3d;fill-opacity:1;fill-rule:nonzero;stroke:none"
         d="m 1554.25,1072.07 c -9.51,0 -17.22,-7.71 -17.22,-17.23 0,-9.51 7.71,-17.22 17.22,-17.22 9.51,0 17.23,7.71 17.23,17.22 0,9.52 -7.72,17.23 -17.23,17.23" /><path
         id="path144"
         style="fill:#3c3c3d;fill-opacity:1;fill-rule:nonzero;stroke:none"
         d="m 1554.25,1024.98 c -9.51,0 -17.22,-7.71 -17.22,-17.23 0,-9.512 7.71,-17.219 17.22,-17.219 9.51,0 17.23,7.707 17.23,17.219 0,9.52 -7.72,17.23 -17.23,17.23" /><path
         id="path146"
         style="fill:#3c3c3d;fill-opacity:1;fill-rule:nonzero;stroke:none"
         d="m 1507.16,1119.16 c -9.51,0 -17.22,-7.71 -17.22,-17.23 0,-9.51 7.71,-17.22 17.22,-17.22 9.51,0 17.23,7.71 17.23,17.22 0,9.52 -7.72,17.23 -17.23,17.23" /><path
         id="path148"
         style="fill:#3c3c3d;fill-opacity:1;fill-rule:nonzero;stroke:none"
         d="m 1507.16,1072.07 c -9.51,0 -17.22,-7.71 -17.22,-17.23 0,-9.51 7.71,-17.22 17.22,-17.22 9.51,0 17.23,7.71 17.23,17.22 0,9.52 -7.72,17.23 -17.23,17.23" /><path
         id="path150"
         style="fill:#3c3c3d;fill-opacity:1;fill-rule:nonzero;stroke:none"
         d="m 1507.16,1024.98 c -9.51,0 -17.22,-7.71 -17.22,-17.23 0,-9.512 7.71,-17.219 17.22,-17.219 9.51,0 17.23,7.707 17.23,17.219 0,9.52 -7.72,17.23 -17.23,17.23" /><path
         id="path152"
         style="fill:#3c3c3d;fill-opacity:1;fill-rule:nonzero;stroke:none"
         d="m 1460.07,1119.16 c -9.51,0 -17.22,-7.71 -17.22,-17.23 0,-9.51 7.71,-17.22 17.22,-17.22 9.51,0 17.23,7.71 17.23,17.22 0,9.52 -7.72,17.23 -17.23,17.23" /><path
         id="path154"
         style="fill:#3c3c3d;fill-opacity:1;fill-rule:nonzero;stroke:none"
         d="m 1460.07,1072.07 c -9.51,0 -17.22,-7.71 -17.22,-17.23 0,-9.51 7.71,-17.22 17.22,-17.22 9.51,0 17.23,7.71 17.23,17.22 0,9.52 -7.72,17.23 -17.23,17.23" /><path
         id="path156"
         style="fill:#3c3c3d;fill-opacity:1;fill-rule:nonzero;stroke:none"
         d="m 1460.07,1024.98 c -9.51,0 -17.22,-7.71 -17.22,-17.23 0,-9.512 7.71,-17.219 17.22,-17.219 9.51,0 17.23,7.707 17.23,17.219 0,9.52 -7.72,17.23 -17.23,17.23" /><path
         id="path158"
         style="fill:#3c3c3d;fill-opacity:1;fill-rule:nonzero;stroke:none"
         d="m 1412.98,1119.16 c -9.51,0 -17.22,-7.71 -17.22,-17.23 0,-9.51 7.71,-17.22 17.22,-17.22 9.52,0 17.23,7.71 17.23,17.22 0,9.52 -7.71,17.23 -17.23,17.23" /><path
         id="path160"
         style="fill:#3c3c3d;fill-opacity:1;fill-rule:nonzero;stroke:none"
         d="m 1412.98,1072.07 c -9.51,0 -17.22,-7.71 -17.22,-17.23 0,-9.51 7.71,-17.22 17.22,-17.22 9.52,0 17.23,7.71 17.23,17.22 0,9.52 -7.71,17.23 -17.23,17.23" /><path
         id="path162"
         style="fill:#3c3c3d;fill-opacity:1;fill-rule:nonzero;stroke:none"
         d="m 1412.98,1024.98 c -9.51,0 -17.22,-7.71 -17.22,-17.23 0,-9.512 7.71,-17.219 17.22,-17.219 9.52,0 17.23,7.707 17.23,17.219 0,9.52 -7.71,17.23 -17.23,17.23" /><path
         id="path164"
         style="fill:#3c3c3d;fill-opacity:1;fill-rule:nonzero;stroke:none"
         d="m 1365.89,1119.16 c -9.51,0 -17.22,-7.71 -17.22,-17.23 0,-9.51 7.71,-17.22 17.22,-17.22 9.52,0 17.23,7.71 17.23,17.22 0,9.52 -7.71,17.23 -17.23,17.23" /><path
         id="path166"
         style="fill:#3c3c3d;fill-opacity:1;fill-rule:nonzero;stroke:none"
         d="m 1365.89,1072.07 c -9.51,0 -17.22,-7.71 -17.22,-17.23 0,-9.51 7.71,-17.22 17.22,-17.22 9.52,0 17.23,7.71 17.23,17.22 0,9.52 -7.71,17.23 -17.23,17.23" /><path
         id="path168"
         style="fill:#3c3c3d;fill-opacity:1;fill-rule:nonzero;stroke:none"
         d="m 1365.89,1024.98 c -9.51,0 -17.22,-7.71 -17.22,-17.23 0,-9.512 7.71,-17.219 17.22,-17.219 9.52,0 17.23,7.707 17.23,17.219 0,9.52 -7.71,17.23 -17.23,17.23" /><path
         id="path170"
         style="fill:#3c3c3d;fill-opacity:1;fill-rule:nonzero;stroke:none"
         d="m 1318.8,1119.16 c -9.51,0 -17.22,-7.71 -17.22,-17.23 0,-9.51 7.71,-17.22 17.22,-17.22 9.52,0 17.23,7.71 17.23,17.22 0,9.52 -7.71,17.23 -17.23,17.23" /><path
         id="path172"
         style="fill:#3c3c3d;fill-opacity:1;fill-rule:nonzero;stroke:none"
         d="m 1318.8,1072.07 c -9.51,0 -17.22,-7.71 -17.22,-17.23 0,-9.51 7.71,-17.22 17.22,-17.22 9.52,0 17.23,7.71 17.23,17.22 0,9.52 -7.71,17.23 -17.23,17.23" /><path
         id="path174"
         style="fill:#3c3c3d;fill-opacity:1;fill-rule:nonzero;stroke:none"
         d="m 1318.8,1024.98 c -9.51,0 -17.22,-7.71 -17.22,-17.23 0,-9.512 7.71,-17.219 17.22,-17.219 9.52,0 17.23,7.707 17.23,17.219 0,9.52 -7.71,17.23 -17.23,17.23" /><path
         id="path176"
         style="fill:#3c3c3d;fill-opacity:1;fill-rule:nonzero;stroke:none"
         d="m 1742.61,1024.98 c -9.51,0 -17.22,-7.71 -17.22,-17.23 0,-9.512 7.71,-17.219 17.22,-17.219 9.51,0 17.23,7.707 17.23,17.219 0,9.52 -7.72,17.23 -17.23,17.23" /><path
         id="path178"
         style="fill:#3c3c3d;fill-opacity:1;fill-rule:nonzero;stroke:none"
         d="m 1695.52,977.891 c -9.51,0 -17.22,-7.711 -17.22,-17.231 0,-9.512 7.71,-17.219 17.22,-17.219 9.51,0 17.23,7.707 17.23,17.219 0,9.52 -7.72,17.231 -17.23,17.231" /><path
         id="path180"
         style="fill:#3c3c3d;fill-opacity:1;fill-rule:nonzero;stroke:none"
         d="m 1742.61,977.891 c -9.51,0 -17.22,-7.711 -17.22,-17.231 0,-9.512 7.71,-17.219 17.22,-17.219 9.51,0 17.23,7.707 17.23,17.219 0,9.52 -7.72,17.231 -17.23,17.231" /><path
         id="path182"
         style="fill:#3c3c3d;fill-opacity:1;fill-rule:nonzero;stroke:none"
         d="m 1695.52,930.801 c -9.51,0 -17.22,-7.711 -17.22,-17.231 0,-9.511 7.71,-17.218 17.22,-17.218 9.51,0 17.23,7.707 17.23,17.218 0,9.52 -7.72,17.231 -17.23,17.231" /><path
         id="path184"
         style="fill:#3c3c3d;fill-opacity:1;fill-rule:nonzero;stroke:none"
         d="m 1742.61,930.801 c -9.51,0 -17.22,-7.711 -17.22,-17.231 0,-9.511 7.71,-17.218 17.22,-17.218 9.51,0 17.23,7.707 17.23,17.218 0,9.52 -7.72,17.231 -17.23,17.231" /><path
         id="path186"
         style="fill:#3c3c3d;fill-opacity:1;fill-rule:nonzero;stroke:none"
         d="m 1695.52,883.711 c -9.51,0 -17.22,-7.711 -17.22,-17.231 0,-9.511 7.71,-17.218 17.22,-17.218 9.51,0 17.23,7.707 17.23,17.218 0,9.52 -7.72,17.231 -17.23,17.231" /><path
         id="path188"
         style="fill:#3c3c3d;fill-opacity:1;fill-rule:nonzero;stroke:none"
         d="m 1789.7,1166.25 c -9.51,0 -17.22,-7.71 -17.22,-17.23 0,-9.51 7.71,-17.22 17.22,-17.22 9.52,0 17.23,7.71 17.23,17.22 0,9.52 -7.71,17.23 -17.23,17.23" /><path
         id="path190"
         style="fill:#3c3c3d;fill-opacity:1;fill-rule:nonzero;stroke:none"
         d="m 1789.7,1119.16 c -9.51,0 -17.22,-7.71 -17.22,-17.23 0,-9.51 7.71,-17.22 17.22,-17.22 9.52,0 17.23,7.71 17.23,17.22 0,9.52 -7.71,17.23 -17.23,17.23" /><path
         id="path192"
         style="fill:#3c3c3d;fill-opacity:1;fill-rule:nonzero;stroke:none"
         d="m 1789.7,1072.07 c -9.51,0 -17.22,-7.71 -17.22,-17.23 0,-9.51 7.71,-17.22 17.22,-17.22 9.52,0 17.23,7.71 17.23,17.22 0,9.52 -7.71,17.23 -17.23,17.23" /><path
         id="path194"
         style="fill:#3c3c3d;fill-opacity:1;fill-rule:nonzero;stroke:none"
         d="m 1789.7,1024.98 c -9.51,0 -17.22,-7.71 -17.22,-17.23 0,-9.512 7.71,-17.219 17.22,-17.219 9.52,0 17.23,7.707 17.23,17.219 0,9.52 -7.71,17.23 -17.23,17.23" /><path
         id="path196"
         style="fill:#3c3c3d;fill-opacity:1;fill-rule:nonzero;stroke:none"
         d="m 1789.7,977.891 c -9.51,0 -17.22,-7.711 -17.22,-17.231 0,-9.512 7.71,-17.219 17.22,-17.219 9.52,0 17.23,7.707 17.23,17.219 0,9.52 -7.71,17.231 -17.23,17.231" /><path
         id="path198"
         style="fill:#3c3c3d;fill-opacity:1;fill-rule:nonzero;stroke:none"
         d="m 1836.79,1119.16 c -9.51,0 -17.22,-7.71 -17.22,-17.23 0,-9.51 7.71,-17.22 17.22,-17.22 9.52,0 17.23,7.71 17.23,17.22 0,9.52 -7.71,17.23 -17.23,17.23" /><path
         id="path200"
         style="fill:#3c3c3d;fill-opacity:1;fill-rule:nonzero;stroke:none"
         d="m 1836.79,1072.07 c -9.51,0 -17.22,-7.71 -17.22,-17.23 0,-9.51 7.71,-17.22 17.22,-17.22 9.52,0 17.23,7.71 17.23,17.22 0,9.52 -7.71,17.23 -17.23,17.23" /><path
         id="path202"
         style="fill:#3c3c3d;fill-opacity:1;fill-rule:nonzero;stroke:none"
         d="m 1836.79,1024.98 c -9.51,0 -17.22,-7.71 -17.22,-17.23 0,-9.512 7.71,-17.219 17.22,-17.219 9.52,0 17.23,7.707 17.23,17.219 0,9.52 -7.71,17.23 -17.23,17.23" /><path
         id="path204"
         style="fill:#3c3c3d;fill-opacity:1;fill-rule:nonzero;stroke:none"
         d="m 1883.89,1072.07 c -9.52,0 -17.23,-7.71 -17.23,-17.23 0,-9.51 7.71,-17.22 17.23,-17.22 9.51,0 17.22,7.71 17.22,17.22 0,9.52 -7.71,17.23 -17.22,17.23" /><path
         id="path206"
         style="fill:#3c3c3d;fill-opacity:1;fill-rule:nonzero;stroke:none"
         d="M 4319.49,1218.2 V 891.48 l 255.59,163.36 z" /><path
         id="path208"
         style="fill:#3c3c3d;fill-opacity:1;fill-rule:nonzero;stroke:none"
         d="m 4244.5,991.379 h 48.88 V 1118.31 H 4244.5 V 991.379" /><path
         id="path210"
         style="fill:#3c3c3d;fill-opacity:1;fill-rule:nonzero;stroke:none"
         d="m 4169.52,991.379 h 48.88 v 126.931 h -48.88 V 991.379" /><path
         id="path212"
         style="fill:#3c3c3d;fill-opacity:1;fill-rule:nonzero;stroke:none"
         d="m 4094.53,991.379 h 48.88 v 126.931 h -48.88 V 991.379" /><path
         id="path214"
         style="fill:#3c3c3d;fill-opacity:1;fill-rule:nonzero;stroke:none"
         d="m 4019.55,991.379 h 48.88 v 126.931 h -48.88 V 991.379" /><path
         id="path216"
         style="fill:#3c3c3d;fill-opacity:1;fill-rule:nonzero;stroke:none"
         d="m 3081.76,1071.61 h 633.79 c 6.21,0 11.67,4.09 13.41,10.05 1.75,5.96 -0.65,12.35 -5.89,15.69 l -196.51,125.61 c -4.28,2.72 -9.72,2.92 -14.23,0.48 -4.48,-2.46 -7.26,-7.15 -7.26,-12.26 v -89.27 c 0,-7.72 6.25,-13.97 13.97,-13.97 7.73,0 13.98,6.25 13.98,13.97 v 63.75 l 134.73,-86.11 h -585.99 c -7.73,0 -13.98,-6.25 -13.98,-13.97 0,-7.72 6.25,-13.97 13.98,-13.97" /><path
         id="path218"
         style="fill:#3c3c3d;fill-opacity:1;fill-rule:nonzero;stroke:none"
         d="m 3715.55,1038.09 h -633.79 c -7.73,0 -13.98,-6.25 -13.98,-13.97 0,-7.72 6.25,-13.97 13.98,-13.97 h 585.99 l -134.73,-86.119 v 63.75 c 0,7.731 -6.25,13.979 -13.98,13.979 -7.72,0 -13.97,-6.248 -13.97,-13.979 V 898.52 c 0,-5.11 2.78,-9.801 7.26,-12.258 2.1,-1.141 4.41,-1.723 6.71,-1.723 2.62,0 5.25,0.742 7.52,2.203 l 196.51,125.598 c 5.24,3.34 7.64,9.74 5.89,15.7 -1.74,5.95 -7.2,10.05 -13.41,10.05" /><path
         id="path220"
         style="fill:#3c3c3d;fill-opacity:1;fill-rule:nonzero;stroke:none"
         d="m 3585.94,3756.03 c -18.56,0 -33.59,-15.04 -33.59,-33.59 0,-84.74 -68.94,-153.69 -153.7,-153.69 -84.74,0 -153.69,68.95 -153.69,153.69 0,84.75 68.95,153.7 153.69,153.7 v 0 -56.75 l 150.65,90.33 -150.65,90.33 v -56.74 0 c -121.78,0 -220.86,-99.08 -220.86,-220.87 0,-121.78 99.08,-220.86 220.86,-220.86 121.79,0 220.87,99.08 220.87,220.86 0,18.55 -15.03,33.59 -33.58,33.59" /><path
         id="path222"
         style="fill:#3c3c3d;fill-opacity:1;fill-rule:nonzero;stroke:none"
         d="m 4123.89,3750.84 c 0,0.01 0,0.02 0,0.03 0,95.6 77.82,173.37 173.49,173.37 30.83,0 60.88,-8.1 86.88,-23.43 18.05,-10.65 41.29,-4.64 51.9,13.4 10.64,18.04 4.64,41.28 -13.4,51.91 -37.66,22.2 -81.01,33.93 -125.38,33.93 -137.48,0 -249.3,-111.78 -249.3,-249.18 0,-0.01 0,-0.02 0,-0.03 h -64.09 l 101.96,-170.02 101.94,170.02 h -64" /><path
         id="path224"
         style="fill:#3c3c3d;fill-opacity:1;fill-rule:nonzero;stroke:none"
         d="m 4610.63,3750.84 -101.95,170.01 -101.94,-170.01 h 63.99 c -0.02,-95.65 -77.77,-173.45 -173.35,-173.45 -30.81,0 -60.92,8.11 -87.08,23.47 -18.02,10.58 -41.28,4.54 -51.87,-13.51 -10.61,-18.05 -4.56,-41.28 13.49,-51.88 37.79,-22.17 81.17,-33.89 125.46,-33.89 137.38,0 249.14,111.81 249.17,249.26 h 64.08" /><path
         id="path226"
         style="fill:#3c3c3d;fill-opacity:1;fill-rule:nonzero;stroke:none"
         d="m 4560.78,1953.46 -182.59,-210.47 h -344.34 l 182.65,210.47 -182.65,210.55 h 344.21 l 182.72,-210.55" /><path
         id="path228"
         style="fill:#3c3c3d;fill-opacity:1;fill-rule:nonzero;stroke:none"
         d="m 1740.99,168.84 c -1.5,-3.301 -3.5,-5.801 -6.1,-7.399 -2.5,-1.609 -5.4,-2.41 -8.4,-2.41 -3.1,0 -5.9,0.91 -8.5,2.61 -2.6,1.699 -4.6,4.199 -6.1,7.5 -1.4,3.398 -2.2,7.39 -2.2,12.199 0,4.5 0.7,8.492 2.1,11.902 1.4,3.399 3.4,6 5.9,7.797 2.5,1.801 5.4,2.801 8.6,2.801 3.1,0 6,-0.899 8.6,-2.699 2.6,-1.801 4.6,-4.399 6.1,-7.7 1.6,-3.402 2.3,-7.402 2.3,-12.101 0,-5 -0.7,-9.098 -2.3,-12.5 z m 17.7,71.699 c -1.4,1.703 -3.4,2.5 -6.1,2.5 -2.7,0 -4.7,-0.898 -6.2,-2.699 -1.4,-1.899 -2.1,-4.598 -2.1,-8.199 v -26 c -3.3,3.601 -6.7,6.3 -10.2,8.101 -3.5,1.699 -7.7,2.598 -12.8,2.598 -8.7,0 -15.8,-3.102 -21.2,-9.199 -5.3,-6.2 -8,-14.7 -8,-25.711 0,-5.188 0.7,-10 2,-14.489 1.4,-4.5 3.3,-8.41 6,-11.699 2.6,-3.301 5.7,-5.801 9.3,-7.601 3.5,-1.801 7.4,-2.7 11.6,-2.7 3.2,0 6.2,0.5 8.8,1.399 2.7,0.801 5.2,2.101 7.5,3.801 2.3,1.691 4.6,3.898 7,6.601 v -1.703 c 0,-3.207 0.8,-5.707 2.3,-7.5 1.6,-1.699 3.6,-2.598 6,-2.598 2.4,0 4.4,0.899 6,2.5 1.5,1.7 2.3,4.2 2.3,7.598 v 77.5 c 0,3.301 -0.7,5.801 -2.2,7.5" /><path
         id="path230"
         style="fill:#3c3c3d;fill-opacity:1;fill-rule:nonzero;stroke:none"
         d="m 1792.49,200.34 c 2.8,3 6.4,4.492 10.8,4.492 4.6,0 8.3,-1.492 11.1,-4.492 2.8,-3.008 4.4,-7.5 4.9,-13.5 h -31.9 c 0.6,5.89 2.3,10.402 5.1,13.5 z m 36.7,-30.699 c -1.7,0 -3,-0.399 -3.9,-1.2 -2.2,-2 -4,-3.699 -5.3,-4.902 -1.4,-1.207 -2.9,-2.301 -4.5,-3.398 -1.7,-1 -3.3,-1.801 -5.1,-2.301 -1.7,-0.508 -3.6,-0.699 -5.7,-0.699 -3.2,0 -6,0.8 -8.6,2.289 -2.6,1.511 -4.7,3.812 -6.3,6.91 -1.6,3 -2.4,6.601 -2.4,10.5 h 34.4 c 4.6,0 8.1,0.699 10.7,2 2.5,1.301 3.8,4.199 3.8,8.601 0,4.801 -1.3,9.399 -3.7,14 -2.4,4.598 -6.1,8.391 -11.1,11.289 -4.9,2.911 -10.8,4.309 -17.6,4.309 -5.3,0 -10.1,-0.801 -14.4,-2.5 -4.4,-1.699 -8,-4.199 -11,-7.297 -2.9,-3.211 -5.2,-7.012 -6.7,-11.5 -1.6,-4.402 -2.4,-9.211 -2.4,-14.402 0,-11 3.2,-19.809 9.4,-26.199 6.3,-6.403 15.1,-9.7 26.4,-9.7 4.9,0 9.3,0.7 13.1,2 3.8,1.297 6.9,2.899 9.4,4.801 2.5,2 4.4,3.996 5.7,6.098 1.2,2.199 1.8,3.992 1.8,5.601 0,1.801 -0.5,3.2 -1.6,4.2 -1.2,1 -2.6,1.5 -4.4,1.5" /><path
         id="path232"
         style="fill:#3c3c3d;fill-opacity:1;fill-rule:nonzero;stroke:none"
         d="m 1899.19,177.039 c -1.8,2.5 -4.4,4.703 -7.9,6.5 -3.4,1.902 -7.9,3.5 -13.3,4.801 -4.6,1.09 -8.2,2.101 -10.8,2.801 -2.7,0.789 -4.7,1.8 -6.3,3 -1.5,1.089 -2.3,2.699 -2.3,4.5 0,2 1,3.691 3.1,5.097 2.2,1.301 4.8,2.004 8,2.004 3.1,0 5.5,-0.512 7.3,-1.601 1.8,-1 3.4,-2.399 4.7,-4.102 1.6,-2 3.1,-3.598 4.3,-4.598 1.3,-1.011 2.8,-1.601 4.6,-1.601 2.5,0 4.5,0.699 5.8,2 1.4,1.301 2,2.898 2,4.902 0,1.899 -0.6,3.797 -1.9,5.699 -1.2,1.899 -3.1,3.7 -5.5,5.301 -2.4,1.598 -5.4,2.797 -9.1,3.797 -3.6,0.902 -7.7,1.391 -12.2,1.391 -5.8,0 -10.8,-0.891 -14.9,-2.789 -4.1,-1.899 -7.2,-4.399 -9.3,-7.5 -2.1,-3.102 -3.1,-6.5 -3.1,-10 0,-3.911 1.1,-7.301 3.4,-10 2.3,-2.7 5.3,-4.899 9.1,-6.5 3.8,-1.602 8.7,-3.211 14.8,-4.7 5.3,-1.3 9.2,-2.711 11.5,-4.101 2.4,-1.399 3.5,-3.699 3.5,-6.699 0,-2.102 -1.1,-3.801 -3.3,-5.399 -2.3,-1.601 -5.2,-2.402 -8.7,-2.402 -4.3,0 -7.8,0.801 -10.3,2.301 -2.5,1.601 -4.6,3.898 -6.5,7.097 -0.8,1.602 -1.8,2.903 -2.8,3.801 -1,0.902 -2.4,1.301 -4.2,1.301 -2.1,0 -3.9,-0.699 -5.2,-2 -1.4,-1.399 -2.1,-3.102 -2.1,-5 0,-2.899 1.1,-5.801 3.2,-8.699 2.2,-2.911 5.5,-5.301 10,-7.301 4.5,-1.899 9.9,-2.899 16.2,-2.899 6.6,0 12.2,0.899 16.8,2.7 4.7,1.8 8.2,4.398 10.5,7.898 2.4,3.391 3.5,7.602 3.5,12.402 0,3.2 -0.8,6.098 -2.6,8.598" /><path
         id="path234"
         style="fill:#3c3c3d;fill-opacity:1;fill-rule:nonzero;stroke:none"
         d="m 1925.79,240.141 c -1.7,1.39 -3.7,2.191 -6,2.191 -2.4,0 -4.4,-0.801 -6.2,-2.5 -1.8,-1.59 -2.7,-3.594 -2.7,-6.094 0,-2.797 0.9,-4.898 2.6,-6.406 1.8,-1.492 3.9,-2.191 6.3,-2.191 2.4,0 4.4,0.699 6.1,2.191 1.7,1.609 2.6,3.707 2.6,6.406 0,2.793 -0.9,4.903 -2.7,6.403 z m 0.2,-25.899 c -1.7,1.797 -3.8,2.688 -6.4,2.688 -2.6,0 -4.7,-0.891 -6.3,-2.688 -1.6,-1.703 -2.4,-4.301 -2.4,-7.801 v -50.3 c 0,-3.411 0.8,-6 2.4,-7.899 1.6,-1.801 3.7,-2.801 6.3,-2.801 2.6,0 4.7,0.899 6.4,2.7 1.7,1.8 2.5,4.5 2.5,8 v 50.789 c 0,3.109 -0.8,5.609 -2.5,7.312" /><path
         id="path236"
         style="fill:#3c3c3d;fill-opacity:1;fill-rule:nonzero;stroke:none"
         d="m 1985.89,169.539 c -1.6,-3.098 -3.7,-5.508 -6.3,-7 -2.6,-1.598 -5.4,-2.398 -8.3,-2.398 -4.9,0 -9,1.789 -12.1,5.5 -3.1,3.601 -4.6,9 -4.6,16.101 0,7.098 1.5,12.5 4.5,16.297 3,3.801 7,5.801 12.1,5.801 5.1,0 9.3,-2 12.4,-6 3.2,-4 4.8,-9.598 4.8,-16.801 0,-4.508 -0.9,-8.309 -2.5,-11.5 z m 17.9,44.102 c -1.1,2.199 -3.4,3.289 -6.8,3.289 -2.3,0 -4.3,-0.891 -5.8,-2.5 -1.5,-1.7 -2.2,-4.09 -2.2,-7.098 v -2.391 c -3.1,4.09 -6.5,7.098 -10.2,9 -3.6,1.899 -7.9,2.899 -12.9,2.899 -4.2,0 -8,-0.801 -11.5,-2.301 -3.5,-1.398 -6.5,-3.598 -9.2,-6.598 -2.6,-2.902 -4.7,-6.5 -6.1,-10.699 -1.5,-4.301 -2.2,-9 -2.2,-14.301 0,-7.101 1.2,-13.3 3.6,-18.699 2.3,-5.402 5.7,-9.601 10.1,-12.601 4.4,-3.102 9.5,-4.602 15.4,-4.602 4.9,0 9.1,1 12.7,3 3.5,2 6.6,4.902 9.3,8.602 -0.1,-5.7 -0.2,-9.903 -0.4,-12.5 -0.1,-2.602 -0.7,-5 -1.7,-7.301 -1,-2.309 -2.8,-4.008 -5.3,-5.301 -2.5,-1.297 -6,-1.898 -10.6,-1.898 -2.2,0 -4.2,0.199 -5.9,0.601 -1.7,0.399 -3.2,1 -4.4,1.899 -1.2,0.8 -2.4,1.8 -3.4,3 -1,1.199 -2,2.398 -2.9,3.5 -1.9,2.3 -4.2,3.39 -6.8,3.39 -2,0 -3.8,-0.691 -5.2,-1.992 -1.5,-1.398 -2.2,-3.098 -2.2,-5.297 0,-2.801 1.3,-5.504 3.8,-8.203 2.6,-2.699 6.3,-4.898 11,-6.609 4.8,-1.7 10.2,-2.5 16.3,-2.5 6.6,0 12.1,0.609 16.5,2.011 4.5,1.289 8.1,3.301 10.8,6.098 2.8,2.691 4.8,6.199 6,10.402 1.2,4.2 1.9,9.2 1.9,15.098 v 50.992 c 0,4.211 -0.6,7.41 -1.7,9.61" /><path
         id="path238"
         style="fill:#3c3c3d;fill-opacity:1;fill-rule:nonzero;stroke:none"
         d="m 2078.99,198.441 c -0.3,2.399 -1.1,4.801 -2.2,6.899 -1.8,3.691 -4.5,6.5 -8.2,8.601 -3.6,2 -7.8,2.989 -12.4,2.989 -4.8,0 -9,-0.989 -12.7,-2.899 -1,-0.492 -1.9,-1.09 -2.9,-1.789 -2.5,-1.801 -4.9,-4.203 -7.2,-7.203 v 2.203 c 0,2.098 -0.4,3.899 -1.1,5.297 -0.8,1.492 -1.8,2.602 -3,3.301 -1.3,0.691 -2.7,1.09 -4.2,1.09 -2.5,0 -4.5,-0.789 -6,-2.5 -1.5,-1.59 -2.2,-4.09 -2.2,-7.5 v -50.789 c 0,-3.411 0.8,-6 2.5,-7.899 1.6,-1.801 3.7,-2.801 6.2,-2.801 2.6,0 4.8,0.899 6.4,2.7 1.7,1.8 2.5,4.5 2.5,8 v 22 c 0,7.199 0.4,12.089 1.3,14.699 1.2,3.301 3.1,5.801 5.6,7.699 2.6,1.902 5.5,2.801 8.6,2.801 4.8,0 8,-1.5 9.6,-4.602 1.6,-3.097 2.4,-7.5 2.4,-13.297 v -29.3 c 0,-3.411 0.9,-6 2.5,-7.899 1.6,-1.801 3.7,-2.801 6.4,-2.801 2.5,0 4.6,0.899 6.2,2.7 1.7,1.8 2.5,4.5 2.5,8 v 32.699 c 0,3.89 -0.2,7.101 -0.6,9.601" /><path
         id="path240"
         style="fill:#3c3c3d;fill-opacity:1;fill-rule:nonzero;stroke:none"
         d="m 2111.09,200.34 c 2.8,3 6.4,4.492 10.7,4.492 4.6,0 8.3,-1.492 11.1,-4.492 2.9,-3.008 4.5,-7.5 4.9,-13.5 h -31.9 c 0.6,5.89 2.3,10.402 5.2,13.5 z m 36.6,-30.699 c -1.7,0 -2.9,-0.399 -3.8,-1.2 -2.2,-2 -4,-3.699 -5.4,-4.902 -1.4,-1.207 -2.9,-2.301 -4.5,-3.398 -1.6,-1 -3.3,-1.801 -5,-2.301 -1.7,-0.508 -3.5,-0.699 -5.5,-0.699 h -0.1 c -0.1,0 -0.1,0 -0.2,0 -3.1,0 -6,0.8 -8.6,2.289 -2.6,1.511 -4.7,3.812 -6.2,6.91 -0.3,0.59 -0.6,1.101 -0.8,1.699 v 0.102 c -1.1,2.601 -1.6,5.597 -1.7,8.699 h 34.4 c 4.6,0 8.2,0.699 10.7,2 2.5,1.301 3.8,4.199 3.8,8.601 0,4.801 -1.2,9.399 -3.7,14 -2.4,4.598 -6.1,8.391 -11,11.289 -4.9,2.911 -10.8,4.309 -17.7,4.309 -5.3,0 -10.1,-0.801 -14.4,-2.5 -4.3,-1.699 -8,-4.199 -10.9,-7.297 -3,-3.211 -5.3,-7.012 -6.8,-11.5 -1.5,-4.402 -2.3,-9.211 -2.3,-14.402 0,-11 3.1,-19.809 9.4,-26.199 6.2,-6.403 15,-9.7 26.3,-9.7 4.9,0 9.3,0.7 13.1,2 0.1,0 0.3,0.098 0.4,0.098 3.6,1.301 6.6,2.902 9.1,4.703 2.5,2 4.3,3.996 5.6,6.098 1.2,2.199 1.9,3.992 1.9,5.601 0,1.801 -0.6,3.2 -1.7,4.2 -1.1,1 -2.6,1.5 -4.4,1.5" /><path
         id="path242"
         style="fill:#3c3c3d;fill-opacity:1;fill-rule:nonzero;stroke:none"
         d="m 2208.69,168.84 c -1.5,-3.301 -3.6,-5.801 -6.1,-7.399 -2.6,-1.609 -5.4,-2.41 -8.5,-2.41 -3,0 -5.8,0.91 -8.4,2.61 -2.6,1.699 -4.6,4.199 -6.1,7.5 -1.5,3.398 -2.2,7.39 -2.2,12.199 0,4.5 0.7,8.492 2.1,11.902 1.4,3.399 3.3,6 5.9,7.797 2.5,1.801 5.4,2.801 8.6,2.801 3.1,0 5.9,-0.899 8.5,-2.699 2.6,-1.801 4.7,-4.399 6.2,-7.7 1.5,-3.402 2.3,-7.402 2.3,-12.101 0,-5 -0.8,-9.098 -2.3,-12.5 z m 17.7,71.699 c -1.4,1.703 -3.5,2.5 -6.1,2.5 -2.7,0 -4.8,-0.898 -6.2,-2.699 -1.4,-1.899 -2.2,-4.598 -2.2,-8.199 v -26 c -3.3,3.601 -6.6,6.3 -10.1,8.101 -3.5,1.699 -7.8,2.598 -12.8,2.598 -8.8,0 -15.8,-3.102 -21.2,-9.199 -5.4,-6.2 -8.1,-14.7 -8.1,-25.711 0,-5.188 0.7,-10 2.1,-14.489 1.3,-4.5 3.3,-8.41 5.9,-11.699 2.6,-3.301 5.7,-5.801 9.3,-7.601 3.6,-1.801 7.5,-2.7 11.7,-2.7 3.2,0 6.1,0.5 8.8,1.399 2.7,0.801 5.2,2.101 7.5,3.801 2.3,1.691 4.6,3.898 6.9,6.601 v -1.703 c 0,-3.207 0.8,-5.707 2.4,-7.5 1.6,-1.699 3.5,-2.598 6,-2.598 2.4,0 4.4,0.899 5.9,2.5 1.6,1.7 2.4,4.2 2.4,7.598 v 77.5 c 0,3.301 -0.8,5.801 -2.2,7.5" /><path
         id="path244"
         style="fill:#3c3c3d;fill-opacity:1;fill-rule:nonzero;stroke:none"
         d="m 2313.39,164.832 c -3.2,-3.891 -7,-5.801 -11.4,-5.801 -5.2,0 -9.4,1.91 -12.6,5.711 -3.2,3.699 -4.8,9.098 -4.8,16.098 0,4.699 0.8,8.902 2.3,12.301 1.5,3.5 3.5,6.101 6.1,7.898 2.7,1.801 5.6,2.801 9,2.801 3.2,0 6.1,-1 8.5,-2.801 2.5,-1.797 4.4,-4.398 5.7,-7.699 1.3,-3.399 2,-7.399 2,-12 0,-7.199 -1.6,-12.699 -4.8,-16.508 z m 18.8,35.809 c -2.4,5.199 -5.8,9.191 -10.2,12 -4.4,2.8 -9.5,4.199 -15.4,4.199 -5,0 -9.3,-1 -12.7,-2.809 -3.5,-1.789 -6.8,-4.39 -10.1,-7.89 v 26.898 c 0,3.199 -0.8,5.699 -2.2,7.402 -1.5,1.801 -3.6,2.598 -6.3,2.598 -2.5,0 -4.5,-0.898 -6,-2.699 -1.4,-1.801 -2.1,-4.5 -2.1,-8.098 v -76.703 c 0,-3.297 0.7,-5.797 2.2,-7.5 1.5,-1.699 3.4,-2.598 5.9,-2.598 2.5,0 4.5,0.899 6.1,2.598 1.6,1.703 2.4,4.203 2.4,7.5 v 1.703 c 1.9,-2.203 3.5,-3.902 4.6,-5 1.2,-1.101 2.6,-2.203 4.3,-3.301 1.7,-1 3.7,-1.902 6.1,-2.5 2.4,-0.601 4.9,-1 7.6,-1 4.4,0 8.5,0.899 12.2,2.7 3.6,1.8 6.8,4.3 9.3,7.601 2.6,3.199 4.6,7.098 5.9,11.5 1.4,4.5 2,9.289 2,14.688 0,7.211 -1.2,13.41 -3.6,18.711" /><path
         id="path246"
         style="fill:#3c3c3d;fill-opacity:1;fill-rule:nonzero;stroke:none"
         d="m 2400.09,213.039 c -0.7,1.203 -1.6,2.102 -2.8,2.801 -1.2,0.691 -2.5,1.09 -3.8,1.09 -1.9,0 -3.3,-0.289 -4.3,-0.989 -1,-0.601 -2,-1.91 -2.9,-3.699 -0.9,-1.902 -1.9,-4.402 -3,-7.703 l -14.1,-40.199 -14.9,43.301 c -1,3 -2.1,5.3 -3.4,6.898 -1.3,1.602 -3.2,2.391 -5.7,2.391 -1.5,0 -2.9,-0.399 -4.2,-1.188 -1.4,-0.703 -2.5,-1.801 -3.2,-3.101 -0.8,-1.2 -1.2,-2.602 -1.2,-4.102 0,-1.5 0.7,-3.707 2,-6.898 l 21.6,-54.399 -1.6,-4 c -1.2,-2.801 -2.2,-5 -3.2,-6.5 -0.9,-1.512 -1.9,-2.5 -3.1,-3.101 -1.1,-0.602 -2.7,-0.911 -4.7,-0.911 -0.9,0 -1.8,0.11 -2.9,0.411 -0.9,0.199 -1.9,0.398 -2.8,0.398 -2.4,0 -4.2,-0.598 -5.4,-1.699 -1.3,-1.098 -1.9,-2.598 -1.9,-4.598 0,-3 1.3,-5 3.9,-6.203 2.6,-1.098 6.4,-1.609 11.6,-1.609 5.2,0 9.4,0.8 12.5,2.41 3.2,1.601 5.7,3.902 7.5,6.898 1.9,3.004 3.9,7.102 5.8,12.403 l 23,60 c 0.5,1.589 1,3.101 1.4,4.601 0.4,1.5 0.6,2.699 0.8,3.5 0,1.297 -0.3,2.598 -1,3.797" /><path
         id="path248"
         style="fill:#3c3c3d;fill-opacity:1;fill-rule:nonzero;stroke:none"
         d="m 2613.19,215.41 h 4.19 v 5.27 c 0,5.519 0.68,9.879 2.07,13.129 1.39,3.242 3.77,5.601 7.1,7.082 3.32,1.468 7.88,2.218 13.67,2.218 10.3,0 15.41,-2.488 15.41,-7.55 0,-1.618 -0.54,-3.02 -1.64,-4.168 -1.04,-1.161 -2.32,-1.743 -3.78,-1.743 -0.67,0 -1.88,0.133 -3.57,0.403 -1.61,0.219 -3.07,0.379 -4.22,0.379 -3.17,0 -5.19,-0.961 -6.14,-2.809 -0.86,-1.871 -1.32,-4.531 -1.32,-8.031 v -4.18 h 4.29 c 6.72,0 10.04,-2.012 10.04,-6.07 0,-2.852 -0.86,-4.68 -2.67,-5.449 -1.77,-0.782 -4.23,-1.172 -7.37,-1.172 h -4.29 V 156.16 c 0,-3.461 -0.82,-6.101 -2.5,-7.918 -1.64,-1.84 -3.76,-2.75 -6.39,-2.75 -2.49,0 -4.55,0.91 -6.22,2.75 -1.66,1.817 -2.47,4.457 -2.47,7.918 v 46.559 h -4.84 c -2.63,0 -4.62,0.57 -6.06,1.781 -1.41,1.148 -2.12,2.711 -2.12,4.59 0,4.23 2.94,6.32 8.83,6.32 v 0" /><path
         id="path250"
         style="fill:#3c3c3d;fill-opacity:1;fill-rule:nonzero;stroke:none"
         d="M 2670.72,170.852 V 156.16 c 0,-3.551 -0.9,-6.23 -2.53,-8 -1.68,-1.789 -3.79,-2.668 -6.35,-2.668 -2.59,0 -4.66,0.887 -6.28,2.707 -1.6,1.789 -2.44,4.453 -2.44,7.961 v 48.949 c 0,7.903 2.84,11.852 8.54,11.852 2.94,0 5.03,-0.91 6.33,-2.762 1.28,-1.859 1.99,-4.57 2.15,-8.187 2.08,3.617 4.23,6.328 6.42,8.187 2.25,1.852 5.17,2.762 8.88,2.762 3.72,0 7.27,-0.91 10.74,-2.762 3.49,-1.859 5.23,-4.32 5.23,-7.347 0,-2.141 -0.76,-3.942 -2.21,-5.313 -1.49,-1.41 -3.08,-2.109 -4.79,-2.109 -0.67,0 -2.24,0.429 -4.69,1.218 -2.47,0.782 -4.67,1.184 -6.53,1.184 -2.57,0 -4.69,-0.703 -6.31,-2.031 -1.65,-1.379 -2.92,-3.36 -3.82,-6 -0.88,-2.68 -1.49,-5.871 -1.85,-9.52 -0.33,-3.672 -0.49,-8.16 -0.49,-13.429 v 0" /><path
         id="path252"
         style="fill:#3c3c3d;fill-opacity:1;fill-rule:nonzero;stroke:none"
         d="m 2722.29,200.34 c 2.8,3 6.4,4.492 10.7,4.492 4.71,0 8.3,-1.492 11.2,-4.492 2.8,-2.899 4.4,-7.399 4.8,-13.41 h -31.9 c 0.61,5.91 2.3,10.312 5.2,13.41 z m 36.6,-30.699 c -1.6,0 -2.9,-0.399 -3.8,-1.2 -2.2,-2 -4,-3.699 -5.4,-4.8 -1.4,-1.309 -2.8,-2.403 -4.49,-3.411 -1.61,-1.089 -3.31,-1.89 -5,-2.289 -1.81,-0.609 -3.71,-0.8 -5.81,-0.8 -3.1,0 -6,0.8 -8.6,2.289 -2.6,1.609 -4.7,3.91 -6.3,6.91 -1.5,3 -2.3,6.601 -2.4,10.59 h 34.4 c 4.6,0 8.2,0.609 10.7,1.91 2.5,1.39 3.8,4.199 3.8,8.601 0,4.801 -1.2,9.399 -3.7,14.09 -2.4,4.61 -6.1,8.301 -11,11.199 -4.9,2.911 -10.8,4.309 -17.7,4.309 -5.3,0 -10.1,-0.801 -14.4,-2.5 -4.3,-1.699 -8,-4.098 -10.9,-7.297 -3,-3.211 -5.3,-7.012 -6.8,-11.402 -1.6,-4.5 -2.3,-9.309 -2.3,-14.5 0,-11 3.1,-19.809 9.4,-26.199 6.2,-6.403 15,-9.602 26.3,-9.602 4.9,0 9.3,0.602 13.1,1.902 3.8,1.297 7,2.899 9.5,4.801 2.5,2 4.4,3.996 5.7,6.199 1.2,2.098 1.8,3.891 1.8,5.5 0,1.801 -0.6,3.2 -1.7,4.2 -1.1,1 -2.6,1.5 -4.4,1.5" /><path
         id="path254"
         style="fill:#3c3c3d;fill-opacity:1;fill-rule:nonzero;stroke:none"
         d="m 2795.29,200.34 c 2.9,3 6.5,4.492 10.8,4.492 4.6,0 8.3,-1.492 11.2,-4.492 2.8,-2.899 4.4,-7.399 4.8,-13.41 h -31.89 c 0.59,5.91 2.29,10.312 5.09,13.41 z m 36.7,-30.699 c -1.6,0 -2.9,-0.399 -3.8,-1.2 -2.2,-2 -4,-3.699 -5.4,-4.8 -1.4,-1.309 -2.8,-2.403 -4.5,-3.411 -1.6,-1.089 -3.3,-1.89 -5.1,-2.289 -1.7,-0.609 -3.6,-0.8 -5.7,-0.8 -3.1,0 -6,0.8 -8.6,2.289 -2.6,1.609 -4.7,3.91 -6.19,6.91 -1.61,3 -2.41,6.601 -2.5,10.59 h 34.39 c 4.6,0 8.2,0.609 10.7,1.91 2.5,1.39 3.8,4.199 3.8,8.601 0,4.801 -1.2,9.399 -3.7,14.09 -2.4,4.61 -6.1,8.301 -11,11.199 -5,2.911 -10.8,4.309 -17.7,4.309 -5.3,0 -10.1,-0.801 -14.4,-2.5 -4.4,-1.699 -8,-4.098 -10.9,-7.297 -3,-3.211 -5.3,-7.012 -6.8,-11.402 -1.6,-4.5 -2.4,-9.309 -2.4,-14.5 0,-11 3.2,-19.809 9.5,-26.199 6.2,-6.403 15,-9.602 26.3,-9.602 4.9,0 9.3,0.602 13.1,1.902 3.8,1.297 7,2.899 9.5,4.801 2.5,2 4.4,3.996 5.6,6.199 1.3,2.098 1.8,3.891 1.8,5.5 0,1.801 -0.5,3.2 -1.6,4.2 -1.1,1 -2.6,1.5 -4.4,1.5" /><path
         id="path256"
         style="fill:#3c3c3d;fill-opacity:1;fill-rule:nonzero;stroke:none"
         d="m 2895.29,169.242 c -1.5,-3.402 -3.4,-5.902 -6,-7.601 -2.4,-1.7 -5.2,-2.61 -8.1,-2.61 -0.6,0 -1.2,0 -1.7,0.211 -4.2,0.297 -7.7,2.289 -10.6,5.699 -3.3,3.797 -4.9,9.301 -4.9,16.297 0,7.403 1.6,13.004 5,16.903 3.3,3.789 7.4,5.699 12.2,5.699 3.1,0 5.9,-0.899 8.4,-2.699 2.5,-1.801 4.4,-4.301 5.8,-7.7 1.5,-3.3 2.2,-7.3 2.2,-11.91 0,-4.289 -0.6,-7.992 -1.9,-11.09 -0.1,-0.402 -0.2,-0.8 -0.4,-1.199 z m 19.8,14.199 c -0.2,6.5 -1.5,12.098 -3.8,17 -2.7,5.301 -6.3,9.391 -10.8,12.2 -4.6,2.8 -9.6,4.199 -15,4.199 -4.5,0 -8.5,-1 -12,-2.899 -3.6,-1.902 -7.1,-4.91 -10.4,-9 v 2.098 c 0,3.301 -0.7,5.691 -2.3,7.391 -1.6,1.711 -3.6,2.5 -6.1,2.5 -2.5,0 -4.49,-0.789 -6,-2.391 -1.5,-1.699 -2.2,-4.199 -2.2,-7.609 v -75.789 c 0,-3.899 0.6,-6.711 1.6,-8.809 1.1,-1.891 3.3,-2.902 6.6,-2.902 5.6,0 8.4,3.91 8.4,11.609 v 26.293 c 1.8,-2.191 3.6,-4.09 5.5,-5.691 1.4,-1.2 2.8,-2.211 4.3,-3.102 3.4,-2.008 7.6,-3 12.6,-3 4.2,0 8.1,0.801 11.7,2.402 3.7,1.7 6.8,4.098 9.5,7.098 2.6,3.102 4.7,6.891 6.3,11.402 1.5,4.5 2.21,9.5 2.21,14.899 0,0.699 0,1.39 -0.11,2.101" /><path
         id="path258"
         style="fill:#3c3c3d;fill-opacity:1;fill-rule:nonzero;stroke:none"
         d="m 2938.99,240.141 c -1.8,1.5 -3.79,2.191 -6.1,2.191 -2.3,0 -4.4,-0.801 -6.2,-2.391 -1.8,-1.601 -2.7,-3.703 -2.7,-6.203 0,-2.699 0.9,-4.797 2.7,-6.297 1.7,-1.5 3.8,-2.3 6.2,-2.3 2.4,0 4.4,0.8 6.2,2.3 1.7,1.5 2.5,3.598 2.5,6.297 0,2.793 -0.9,5 -2.6,6.403 z m 0.1,-25.801 c -1.7,1.801 -3.8,2.59 -6.39,2.59 -2.5,0 -4.61,-0.789 -6.21,-2.59 -1.6,-1.801 -2.5,-4.399 -2.5,-7.899 v -50.3 c 0,-3.411 0.9,-6 2.5,-7.899 1.6,-1.801 3.71,-2.703 6.21,-2.703 2.59,0 4.69,0.801 6.39,2.703 1.7,1.797 2.5,4.399 2.5,7.899 v 50.789 c 0,3.211 -0.8,5.609 -2.5,7.41" /><path
         id="path260"
         style="fill:#3c3c3d;fill-opacity:1;fill-rule:nonzero;stroke:none"
         d="m 2998.27,153.52 -15.48,25.511 -9.54,-9 v -13.992 c 0,-3.387 -0.9,-5.98 -2.68,-7.797 -1.75,-1.84 -3.84,-2.75 -6.15,-2.75 -2.7,0 -4.84,0.887 -6.37,2.707 -1.54,1.789 -2.33,4.453 -2.33,7.961 v 74.981 c 0,3.879 0.77,6.851 2.24,8.898 1.51,2.07 3.69,3.07 6.46,3.07 2.71,0 4.84,-0.929 6.44,-2.8 1.58,-1.817 2.39,-4.559 2.39,-8.137 V 189.52 l 19.77,20.75 c 2.45,2.55 4.28,4.351 5.6,5.281 1.28,0.937 2.84,1.41 4.67,1.41 2.21,0 4.02,-0.699 5.53,-2.09 1.42,-1.391 2.17,-3.16 2.17,-5.242 0,-2.57 -2.4,-6.027 -7.15,-10.309 l -9.33,-8.558 18.02,-28.352 c 1.31,-2.129 2.29,-3.68 2.87,-4.781 0.58,-1.078 0.88,-2.168 0.88,-3.129 0,-2.801 -0.77,-4.98 -2.31,-6.609 -1.52,-1.61 -3.54,-2.399 -6,-2.399 -2.14,0 -3.82,0.547 -4.97,1.738 -1.15,1.168 -2.76,3.27 -4.73,6.29 v 0" /><path
         id="path262"
         style="fill:#3c3c3d;fill-opacity:1;fill-rule:nonzero;stroke:none"
         d="m 3036.46,145.492 c -2.64,0 -4.92,0.86 -6.86,2.578 -1.92,1.692 -2.91,4.11 -2.91,7.211 0,2.617 0.94,4.879 2.78,6.75 1.87,1.899 4.12,2.828 6.84,2.828 2.68,0 4.98,-0.929 6.92,-2.789 1.9,-1.859 2.86,-4.14 2.86,-6.789 0,-3.062 -0.96,-5.472 -2.86,-7.172 -1.94,-1.757 -4.2,-2.617 -6.77,-2.617 v 0" /><path
         id="path264"
         style="fill:#3c3c3d;fill-opacity:1;fill-rule:nonzero;stroke:none"
         d="m 3123.89,167.25 c 0,-2.18 -0.66,-4.531 -1.98,-7.02 -1.29,-2.511 -3.31,-4.859 -6,-7.109 -2.68,-2.25 -6.05,-4.09 -10.13,-5.441 -4.07,-1.371 -8.68,-2.078 -13.76,-2.078 -10.89,0 -19.37,3.179 -25.47,9.488 -6.07,6.351 -9.12,14.84 -9.12,25.492 0,7.219 1.38,13.59 4.19,19.137 2.76,5.511 6.81,9.801 12.08,12.832 5.27,3.039 11.62,4.539 18.94,4.539 4.56,0 8.73,-0.66 12.55,-2 3.79,-1.32 7,-3.059 9.65,-5.149 2.62,-2.132 4.65,-4.351 6.04,-6.722 1.4,-2.379 2.08,-4.617 2.08,-6.688 0,-2.09 -0.77,-3.871 -2.33,-5.34 -1.59,-1.449 -3.49,-2.203 -5.68,-2.203 -1.48,0 -2.69,0.403 -3.67,1.141 -0.97,0.762 -2.06,1.961 -3.24,3.672 -2.15,3.238 -4.38,5.699 -6.75,7.308 -2.33,1.641 -5.28,2.45 -8.9,2.45 -5.16,0 -9.38,-2.02 -12.57,-6.079 -3.16,-4.031 -4.76,-9.621 -4.76,-16.628 0,-3.313 0.43,-6.372 1.24,-9.133 0.79,-2.758 1.97,-5.129 3.52,-7.078 1.57,-1.942 3.42,-3.422 5.61,-4.43 2.2,-1.039 4.61,-1.531 7.21,-1.531 3.53,0 6.55,0.812 9.05,2.441 2.55,1.629 4.77,4.109 6.69,7.469 1.07,1.98 2.22,3.512 3.45,4.629 1.24,1.121 2.77,1.691 4.58,1.691 2.14,0 3.92,-0.828 5.33,-2.449 1.42,-1.629 2.15,-3.391 2.15,-5.211 v 0" /><path
         id="path266"
         style="fill:#3c3c3d;fill-opacity:1;fill-rule:nonzero;stroke:none"
         d="m 3177.39,164.641 c -3.2,-4.102 -7.4,-6.102 -12.7,-6.102 -3.6,0 -6.6,0.891 -9.2,2.699 -2.6,1.903 -4.6,4.504 -6,8.004 -1.4,3.399 -2.1,7.399 -2.1,11.996 0,4.602 0.7,8.703 2.1,12.203 1.4,3.399 3.4,6.098 6.1,7.899 2.6,1.699 5.6,2.601 9.1,2.601 5.3,0 9.5,-2.011 12.7,-6 3.1,-4 4.7,-9.601 4.7,-16.703 0,-7.097 -1.6,-12.597 -4.7,-16.597 z m 19.9,31.101 c -1.6,4.297 -3.9,8.098 -7,11.297 -3.1,3.191 -6.8,5.602 -11.1,7.301 -4.4,1.801 -9.2,2.59 -14.5,2.59 -5.3,0 -10.1,-0.789 -14.4,-2.5 -4.3,-1.7 -8,-4.09 -11.1,-7.289 -3,-3.11 -5.4,-6.911 -7,-11.301 -1.6,-4.399 -2.4,-9.309 -2.4,-14.602 0,-5.297 0.8,-10.097 2.3,-14.496 1.7,-4.301 4,-8.101 7.2,-11.301 3,-3.199 6.8,-5.699 11,-7.402 4.2,-1.699 9,-2.598 14.4,-2.598 5.3,0 10.1,0.899 14.5,2.598 4.2,1.703 7.9,4.102 11.01,7.301 3.09,3.199 5.49,6.992 7.09,11.402 1.6,4.399 2.4,9.297 2.4,14.496 0,5.293 -0.8,10.102 -2.4,14.504" /><path
         id="path268"
         style="fill:#3c3c3d;fill-opacity:1;fill-rule:nonzero;stroke:none"
         d="m 3266.77,179.922 v -23.363 c 0,-3.707 -0.82,-6.438 -2.51,-8.317 -1.69,-1.84 -3.87,-2.762 -6.62,-2.762 -2.67,0 -4.85,0.922 -6.45,2.762 -1.68,1.879 -2.52,4.61 -2.52,8.317 v 28 c 0,4.421 -0.14,7.871 -0.43,10.332 -0.31,2.398 -1.14,4.441 -2.46,5.98 -1.33,1.598 -3.45,2.379 -6.31,2.379 -5.76,0 -9.53,-1.961 -11.35,-5.961 -1.82,-3.91 -2.76,-9.578 -2.76,-17 v -23.73 c 0,-3.637 -0.83,-6.407 -2.45,-8.289 -1.69,-1.848 -3.85,-2.79 -6.54,-2.79 -2.68,0 -4.86,0.942 -6.56,2.79 -1.69,1.882 -2.54,4.652 -2.54,8.289 v 50.293 c 0,3.308 0.76,5.828 2.27,7.527 1.55,1.73 3.57,2.582 6.03,2.582 2.42,0 4.41,-0.84 6.04,-2.41 1.6,-1.61 2.4,-3.84 2.4,-6.672 v -1.66 c 3.08,3.621 6.34,6.312 9.79,8 3.5,1.773 7.33,2.621 11.61,2.621 4.41,0 8.2,-0.891 11.37,-2.641 3.18,-1.769 5.79,-4.437 7.87,-7.98 2.98,3.582 6.16,6.25 9.55,8 3.39,1.75 7.14,2.621 11.27,2.621 4.78,0 8.95,-0.969 12.42,-2.852 3.46,-1.879 6.06,-4.597 7.78,-8.09 1.5,-3.199 2.24,-8.199 2.24,-15.027 v -34.312 c 0,-3.707 -0.83,-6.438 -2.49,-8.317 -1.67,-1.84 -3.9,-2.762 -6.64,-2.762 -2.68,0 -4.83,0.942 -6.53,2.79 -1.7,1.882 -2.55,4.652 -2.55,8.289 v 29.562 c 0,3.777 -0.17,6.801 -0.47,9.07 -0.32,2.278 -1.2,4.2 -2.6,5.739 -1.43,1.539 -3.59,2.32 -6.45,2.32 -2.33,0 -4.53,-0.719 -6.61,-2.078 -2.08,-1.352 -3.71,-3.231 -4.88,-5.512 -1.26,-2.961 -1.92,-8.219 -1.92,-15.738 v 0" /><path
         id="path270"
         style="fill:#3c3c3d;fill-opacity:1;fill-rule:nonzero;stroke:none"
         d="m 2448.72,185.469 c -0.01,0.031 -0.01,0.062 -0.01,0.121 0,-0.059 0,-0.09 0.01,-0.121" /><path
         id="path272"
         style="fill:#3c3c3d;fill-opacity:1;fill-rule:nonzero;stroke:none"
         d="m 2449.61,179.84 c 0.01,0 0.01,0 0.02,0 -0.34,1.609 -0.6,3.199 -0.81,4.762 0.21,-1.582 0.47,-3.172 0.79,-4.762" /><path
         id="path274"
         style="fill:#3c3c3d;fill-opacity:1;fill-rule:nonzero;stroke:none"
         d="m 2455.42,163.539 c -0.03,0.063 -0.07,0.141 -0.11,0.223 0.04,-0.082 0.08,-0.16 0.11,-0.223" /><path
         id="path276"
         style="fill:#3c3c3d;fill-opacity:1;fill-rule:nonzero;stroke:none"
         d="m 2454.87,164.621 c -0.15,0.301 -0.3,0.609 -0.45,0.91 0.15,-0.312 0.3,-0.609 0.45,-0.91" /><path
         id="path278"
         style="fill:#3c3c3d;fill-opacity:1;fill-rule:nonzero;stroke:none"
         d="m 2451.24,173.559 c 0.86,-2.707 1.9,-5.34 3.1,-7.848 -1.22,2.559 -2.24,5.199 -3.08,7.848 0,0 -0.01,0 -0.02,0" /><path
         id="path280"
         style="fill:#3c3c3d;fill-opacity:1;fill-rule:nonzero;stroke:none"
         d="m 2516.75,252.801 c 3.4,0 5.9,-0.262 8.78,-0.75 l 0.81,5.168 c 0,0 -7.94,2.441 -18.37,1.59 l -0.82,2.812 c 3.24,0.68 5.67,3.57 5.67,7.008 0,3.953 -3.21,7.141 -7.16,7.141 -3.95,0 -7.15,-3.188 -7.15,-7.141 0,-3.438 2.43,-6.328 5.66,-7.008 l 0.91,-3.129 c -11.08,-1.531 -19.89,-5.851 -19.89,-5.851 l 1.56,-4.782 c 6.7,2.243 12.51,3.59 17.78,4.161 5.17,0.55 9.05,0.781 12.22,0.781" /><path
         id="path282"
         style="fill:#3c3c3d;fill-opacity:1;fill-rule:nonzero;stroke:none"
         d="m 2455.29,226.66 0.04,0.051 c 0.26,0.34 0.51,0.648 0.77,0.969 l -2.12,1.531 -3.31,2.41 c -0.18,-0.25 -5.39,-5.039 -9.49,-13.883 -0.18,0.282 -0.38,0.551 -0.61,0.813 -1.23,1.34 -2.95,2.031 -5.14,1.988 -0.03,0 -0.06,0 -0.1,0 -1.36,0 -2.28,0.461 -2.89,1 0.6,0.762 0.96,1.731 0.96,2.813 0,2.488 -2.03,4.527 -4.53,4.527 -2.5,0 -4.53,-2.039 -4.53,-4.527 0,-2.512 2.03,-4.551 4.53,-4.551 0.39,0 0.77,0.07 1.13,0.14 1.11,-1.23 2.88,-2.312 5.47,-2.25 1.34,0.008 2.31,-0.339 2.97,-1.062 0.75,-0.82 1,-2 1.08,-2.899 -0.01,-0.011 -0.01,-0.031 -0.02,-0.031 -2.95,-8.058 -2.11,-18.09 -2.11,-18.09 l 7.17,-0.289 c 0.14,3.649 0.66,10.039 2.52,15.121 3.56,9.809 8.03,15.961 8.21,16.219" /><path
         id="path284"
         style="fill:#3c3c3d;fill-opacity:1;fill-rule:nonzero;stroke:none"
         d="m 2579.09,246.82 c -2.49,0 -4.53,-2.019 -4.53,-4.531 0,-0.398 0.06,-0.769 0.16,-1.129 -1.24,-1.121 -2.33,-2.898 -2.29,-5.488 0.02,-1.332 -0.32,-2.301 -1.04,-2.953 -0.58,-0.508 -1.3,-0.789 -2.01,-0.957 -5.33,7.468 -11.9,12.027 -11.9,12.027 l -5.14,-5.508 c 3.89,-3.531 7.86,-7.972 11.71,-13.48 2.67,-3.821 5.42,-8.75 7.71,-13.672 l 6.93,3.301 c 0,0 -3.16,7.84 -7.63,14.859 0.78,0.27 1.56,0.691 2.25,1.301 1.36,1.23 2.02,2.961 1.98,5.129 -0.01,1.422 0.45,2.371 1.01,3 0.77,-0.59 1.74,-0.981 2.79,-0.981 2.52,0 4.54,2.051 4.54,4.551 0,2.512 -2.02,4.531 -4.54,4.531" /><path
         id="path286"
         style="fill:#3c3c3d;fill-opacity:1;fill-rule:nonzero;stroke:none"
         d="m 2561.08,184.449 c -9.55,-4.648 -25.27,-10.801 -45.95,-13.687 -8.12,-1.121 -15.99,-1.543 -23.24,-1.543 -9.42,0 -17.75,0.703 -24.14,1.511 -7.3,0.918 -13,2.04 -16.49,2.829 0.84,-2.649 1.86,-5.289 3.08,-7.848 0.03,-0.07 0.05,-0.129 0.08,-0.18 0.15,-0.301 0.3,-0.609 0.45,-0.91 0.14,-0.289 0.29,-0.59 0.44,-0.859 0.04,-0.082 0.08,-0.16 0.11,-0.223 2.06,-3.867 4.52,-7.43 7.33,-10.5 9.75,-10.68 19.7,-12.367 19.79,-12.379 l 0.16,-0.019 0.15,-0.039 c 0.08,-0.043 8.9,-2.883 22.3,-2.883 13.19,0 26.13,2.652 38.45,7.91 9.13,4.66 17.78,11.762 22.05,18.09 3.31,4.89 5.71,10.121 7.12,15.551 0.76,2.878 1.35,7.5 1,12.359 -2.69,-1.809 -6.93,-4.367 -12.69,-7.18" /><path
         id="path288"
         style="fill:#3c3c3d;fill-opacity:1;fill-rule:nonzero;stroke:none"
         d="m 2541.49,205.23 c -6.5,0 -11.8,5.309 -11.8,11.911 0,6.5 5.3,11.8 11.8,11.8 6.5,0 11.8,-5.3 11.8,-11.8 0,-6.602 -5.3,-11.911 -11.8,-11.911 z m -55.8,-13.992 c -10.6,0 -19.1,8.504 -19.1,19.102 0,10.5 8.5,19 19.1,19 10.5,0 19.1,-8.5 19.1,-19 0,-10.598 -8.6,-19.102 -19.1,-19.102 z m 75.2,31.403 c -13.5,19.398 -28.19,24.398 -35.69,25.601 -2.91,0.496 -5.21,0.699 -8.41,0.699 -3.1,0 -6.8,-0.203 -11.9,-0.699 -5,-0.512 -10.6,-1.902 -17.1,-4.101 -9.2,-3 -17.4,-7.801 -23.9,-13.801 l -0.2,-0.199 c -1,-0.899 -3,-2.809 -5.3,-5.711 -0.3,-0.399 -4.5,-6.289 -7.7,-15.289 -2.5,-6.809 -2.4,-16.602 -2.4,-16.7 0,-2.3 0.2,-4.601 0.4,-6.902 0,0 0,0 0,-0.098 0.1,-0.3 0.1,-0.5 0.1,-0.8 0.2,-1.602 0.5,-3.2 0.8,-4.809 4.8,-1.191 33.1,-7.793 64.7,-3.391 19.9,2.801 34.9,8.598 44.1,13.098 7.6,3.602 12.5,6.992 14.4,8.402 -1.9,6.891 -7.1,17.899 -11.9,24.7" /></g></g></svg>